Coordinates
version=1
nRows=29
nColumns=24
inDegrees=yes

Units are S.I. units (second, meters, Newtons, ...)
Angles are in degrees.

endheader
time	pelvis_tilt	pelvis_list	pelvis_rotation	pelvis_tx	pelvis_ty	pelvis_tz	hip_flexion_r	hip_adduction_r	hip_rotation_r	knee_angle_r	ankle_angle_r	subtalar_angle_r	mtp_angle_r	hip_flexion_l	hip_adduction_l	hip_rotation_l	knee_angle_l	ankle_angle_l	subtalar_angle_l	mtp_angle_l	lumbar_extension	lumbar_bending	lumbar_rotation
      1.28000000	     14.27518669	     -0.63440383	     -1.63730500	     -0.67990513	      0.93486612	      0.01644369	    -30.32985311	      3.33972926	    -10.88255241	    -11.79299695	     27.32620067	     -0.65898158	     18.94453769	     -0.67862037	      3.43241912	    -15.17614529	      9.27843895	      2.90321207	     -6.48216803	     36.22208517	    -22.84644700	      0.11835703	      2.76699303
      1.28500000	     14.30890703	     -0.37881009	     -1.81503353	     -0.67375011	      0.93420815	      0.01643381	    -30.65046625	      2.93467136	    -10.88558202	    -12.04769782	     27.42505630	     -0.37936551	     18.32930141	     -0.61367314	      3.69411852	    -14.94470339	      8.77779712	      2.35492775	     -7.64091426	     36.67583910	    -22.82845674	     -0.27831157	      2.76244499
      1.29000000	     14.30936398	     -0.12959919	     -2.08226193	     -0.66757486	      0.93363695	      0.01654263	    -30.89732646	      2.48677494	    -10.74177664	    -12.35938120	     27.37449051	     -0.17512748	     18.33427833	     -0.48267934	      3.94088455	    -14.92653196	      8.14295799	      1.86595131	     -8.59326818	     36.94306092	    -22.77170407	     -0.70017628	      2.87486349
      1.29500000	     14.30023741	      0.16520477	     -2.27367442	     -0.66141195	      0.93312015	      0.01651923	    -31.11064804	      2.02460318	    -10.70446513	    -12.70853840	     27.31213319	      0.01403241	     18.60615665	     -0.32612183	      4.22322158	    -14.70058906	      7.43512901	      1.23148944	     -9.83910648	     37.25942578	    -22.70681273	     -1.14345049	      2.88554769
      1.30000000	     14.23529158	      0.45692030	     -2.40887376	     -0.65531879	      0.93261380	      0.01644696	    -31.23446026	      1.60530673	    -10.60150262	    -13.09260274	     27.07434411	     -0.09683276	     19.99336225	     -0.07441124	      4.48111382	    -14.37023768	      6.63667851	      0.41358283	    -11.29121676	     38.97142990	    -22.59287039	     -1.56736796	      2.84185960
      1.30500000	     14.26912085	      0.83059777	     -2.56412004	     -0.64910776	      0.93231448	      0.01633301	    -31.44421046	      1.06493294	    -10.66462429	    -13.53902671	     26.96829342	      0.20123332	     20.37786243	      0.06298186	      4.84012113	    -14.12679567	      5.78568532	     -0.22889275	    -12.47411699	     39.04521131	    -22.57350780	     -2.08694747	      2.78196270
      1.31000000	     14.19171452	      1.17024233	     -2.71086798	     -0.64298963	      0.93198297	      0.01619747	    -31.46765729	      0.56508440	    -10.58967795	    -14.09036577	     26.74334125	      0.30927597	     21.04181228	      0.34895628	      5.14509604	    -13.78792612	      4.85403994	     -0.85724783	    -13.79788199	     39.21363352	    -22.44555909	     -2.56273496	      2.73507025
      1.31500000	     14.10262714	      1.52649014	     -2.79534902	     -0.63688849	      0.93171778	      0.01595540	    -31.44473871	      0.07621386	    -10.55561044	    -14.70309405	     26.44645932	      0.34227139	     22.07421988	      0.66849624	      5.46350002	    -13.38540665	      3.85934921	     -1.48741148	    -15.09865832	     39.50781321	    -22.31164783	     -3.03450891	      2.63447411
      1.32000000	     13.99965865	      1.88883425	     -2.84551720	     -0.63081144	      0.93152097	      0.01564727	    -31.36748497	     -0.40696629	    -10.54517996	    -15.38196725	     26.08238442	      0.32354714	     23.42230556	      1.02612260	      5.78589005	    -12.98671238	      2.79538956	     -2.05012949	    -16.28217834	     39.86788266	    -22.16942471	     -3.50140479	      2.54053030
      1.32500000	     13.86402839	      2.22211612	     -2.94575385	     -0.62474580	      0.93138537	      0.01537774	    -31.18777409	     -0.89915977	    -10.41436048	    -16.17040499	     25.68804557	      0.39453211	     24.54172547	      1.43617357	      6.07521264	    -12.73737950	      1.66603754	     -2.38587463	    -17.24062885	     40.06519766	    -21.99441678	     -3.95072712	      2.50919118
      1.33000000	     13.81558546	      2.60071895	     -2.99230896	     -0.61861430	      0.93143607	      0.01501985	    -31.08558586	     -1.40455026	    -10.32613675	    -16.98022963	     25.02019347	      0.12795529	     27.08079956	      1.68852579	      6.43203005	    -12.37724889	      0.64500001	     -2.79732024	    -18.21823691	     40.45332826	    -21.91213180	     -4.43366046	      2.38797390
      1.33500000	     13.60529893	      2.92039609	     -2.97823199	     -0.61262876	      0.93133210	      0.01455887	    -30.69993224	     -1.84222793	    -10.22981487	    -18.01523212	     24.61450470	      0.19382573	     27.66469319	      2.22210910	      6.69969272	    -12.11166434	     -0.61237496	     -2.78269833	    -18.75149449	     40.44561580	    -21.67700330	     -4.82624795	      2.24099807
      1.34000000	     13.48575500	      3.25813892	     -2.96381304	     -0.60659628	      0.93142282	      0.01403207	    -30.38207223	     -2.30201527	    -10.13157706	    -19.06953652	     23.86426188	     -0.08408860	     30.41266775	      2.55787384	      7.02180808	    -11.69497675	     -1.68046904	     -2.95232611	    -19.58744377	     40.22955280	    -21.54035150	     -5.23596319	      2.11668598
      1.34500000	     13.27995874	      3.54706121	     -2.91154568	     -0.60063203	      0.93145775	      0.01345920	    -29.88994789	     -2.70368128	     -9.99173002	    -20.27384841	     23.14323641	     -0.28597142	     32.28342910	      3.03473633	      7.27759478	    -11.40794948	     -2.87104820	     -2.79324881	    -19.98234902	     39.90187120	    -21.32178190	     -5.57879732	      1.97306449
      1.35000000	     13.02700597	      3.81649268	     -2.84687775	     -0.59465167	      0.93147011	      0.01280986	    -29.26924368	     -3.10537795	     -9.87408468	    -21.63788977	     22.50483066	     -0.24702385	     32.91088422	      3.54353117	      7.51949535	    -11.17710672	     -4.04252683	     -2.45166492	    -20.21068043	     39.78623191	    -21.05290983	     -5.88797376	      1.84743561
      1.35500000	     12.85635255	      4.08172159	     -2.77702261	     -0.58869191	      0.93165193	      0.01213810	    -28.69491564	     -3.49599586	     -9.71941814	    -23.02060128	     21.46784303	     -0.66548987	     36.26896336	      3.89692297	      7.78007659	    -10.90743837	     -5.09478114	     -2.14517901	    -20.44526971	     38.79853455	    -20.88097304	     -6.19290965	      1.71588757
      1.36000000	     12.62534547	      4.30735902	     -2.71822537	     -0.58276132	      0.93178202	      0.01145784	    -27.96475142	     -3.86936269	     -9.52090034	    -24.56516431	     20.49990258	     -0.90505731	     38.29296415	      4.30723988	      7.99291097	    -10.75750858	     -6.14815181	     -1.61472211	    -20.40157349	     37.95837484	    -20.64458627	     -6.45316661	      1.62559013
      1.36500000	     12.38489941	      4.51414629	     -2.65467884	     -0.57686838	      0.93192916	      0.01072696	    -27.15044481	     -4.23625936	     -9.32216106	    -26.21857299	     19.43436467	     -1.13825189	     40.35003653	      4.68819560	      8.19726529	    -10.61211839	     -7.12977471	     -1.04111862	    -20.32369798	     37.05165811	    -20.40395044	     -6.68560705	      1.54068462
      1.37000000	     12.07194035	      4.68807092	     -2.51898726	     -0.57105729	      0.93197724	      0.00988382	    -26.19174888	     -4.54631564	     -9.15311851	    -27.99170341	     18.40241995	     -1.31891173	     41.45475914	      5.14674419	      8.36858169	    -10.43711918	     -8.11696015	     -0.38777142	    -20.19004025	     36.62340629	    -20.10027035	     -6.85636509	      1.39787563
      1.37500000	     11.87283208	      4.87641066	     -2.55251674	     -0.56519661	      0.93221251	      0.00924051	    -25.28364505	     -4.95302426	     -8.84370980	    -29.80780854	     17.10849847	     -1.65216351	     44.45711431	      5.37822157	      8.56545397	    -10.48168188	     -8.90143953	      0.34214336	    -19.91106621	     35.15868137	    -19.89763793	     -7.09218613	      1.42863439
      1.38000000	     11.52319904	      5.01122252	     -2.46830428	     -0.55946029	      0.93225985	      0.00841284	    -24.14340907	     -5.26790056	     -8.60431584	    -31.75312054	     15.86385135	     -1.72722909	     45.30807579	      5.77813393	      8.70443817	    -10.43220634	     -9.69271212	      0.98297935	    -19.64431157	     34.72895077	    -19.55380545	     -7.22644493	      1.37370890
      1.38500000	     11.32096306	      5.17148618	     -2.50787448	     -0.55370029	      0.93250943	      0.00776795	    -23.12332324	     -5.64725089	     -8.25914783	    -33.67431659	     14.40322476	     -2.14109314	     48.23841239	      5.94684996	      8.87591355	    -10.57546839	    -10.35235045	      1.82823866	    -19.20819692	     32.89934405	    -19.35736541	     -7.42689540	      1.40545605
      1.39000000	     10.95372804	      5.29816420	     -2.46299158	     -0.54804951	      0.93252447	      0.00698004	    -21.85624707	     -5.96708466	     -7.96304848	    -35.71737223	     13.05399544	     -2.29392918	     48.92055002	      6.27789119	      9.01455182	    -10.57482902	    -10.96682527	      2.56042840	    -18.85983504	     32.39711568	    -18.99505290	     -7.55749089	      1.38612460
      1.39500000	     10.72529774	      5.41365896	     -2.53139665	     -0.54242590	      0.93276054	      0.00637781	    -20.70903262	     -6.30053071	     -7.55046369	    -37.69994793	     11.48362427	     -2.65946469	     51.12393322	      6.41409607	      9.13631668	    -10.80991756	    -11.49662053	      3.37456843	    -18.35994228	     30.47911592	    -18.77761456	     -7.71006207	      1.46510796
      1.40000000	     10.38142825	      5.53174960	     -2.54304913	     -0.53685554	      0.93280515	      0.00567545	    -19.39335194	     -6.62013751	     -7.19634095	    -39.75400702	     10.08832780	     -2.79029071	     51.46111785	      6.63949157	      9.26795368	    -10.91465993	    -11.94157210	      4.07646370	    -17.98857667	     30.08278717	    -18.43851167	     -7.84216983	      1.49794625
      1.40500000	     10.13868529	      5.61139826	     -2.61530990	     -0.53133616	      0.93304293	      0.00510375	    -18.17565470	     -6.89191306	     -6.75931673	    -41.71304287	      8.52012381	     -3.16619431	     52.89969242	      6.72641757	      9.35353759	    -11.15420965	    -12.34235812	      4.92386153	    -17.40703729	     27.90712436	    -18.21158200	     -7.94978811	      1.58468782
      1.41000000	      9.86598472	      5.71003686	     -2.70933972	     -0.52583858	      0.93322092	      0.00456209	    -16.89694851	     -7.18709957	     -6.31844626	    -43.68366593	      7.15512783	     -3.27488789	     52.89109522	      6.80045028	      9.46290115	    -11.39211976	    -12.62214412	      5.50504687	    -17.10364709	     27.74939194	    -17.94562215	     -8.08226844	      1.70251133
      1.41500000	      9.55754257	      5.78754362	     -2.69704707	     -0.52041771	      0.93334364	      0.00392649	    -15.59722698	     -7.41119223	     -5.99533408	    -45.58837861	      5.83129176	     -3.54695538	     52.90521493	      6.93365925	      9.54627950	    -11.54676455	    -12.96955456	      6.24560814	    -16.58103224	     26.98959563	    -17.66036089	     -8.16348418	      1.70283278
      1.42000000	      9.33851974	      5.82453071	     -2.81559610	     -0.51499896	      0.93365562	      0.00349564	    -14.37574133	     -7.59906530	     -5.49962629	    -47.40532332	      4.57748145	     -3.72569761	     52.76964269	      6.89335879	      9.58913738	    -11.83067259	    -13.14108652	      6.82175942	    -16.24176176	     26.46635665	    -17.45727016	     -8.23202755	      1.81093907
